<svg xmlns="http://www.w3.org/2000/svg" viewBox="0 0 1000 1000"><defs><style>.cls-1,.cls-2{fill:#1e1e1e;}.cls-1{stroke:#010101;stroke-miterlimit:10;stroke-width:0.25px;}.cls-3,.cls-4{fill:#fff;}.cls-4{opacity:0.07;}</style></defs><g id="Background_Pozadina" data-name="Background / Pozadina"><path class="cls-1" d="M0,0V1000H1000V0ZM643.46,626H525.73l85.88-121.07H729.33Z"/><rect class="cls-2" x="525.73" y="500" width="203.6" height="125.95"/></g><g id="Central_Peace" data-name="Central Peace"><path class="cls-3" d="M369.57,870.71l-92.86,130.92H37.35L211.92,755.52A392.75,392.75,0,0,0,369.57,870.71Z"/><path class="cls-3" d="M986,1.63,897.52,126.4,810.31,249.34A392.31,392.31,0,0,0,649.6,138.47l65.89-92.9,22.78-32.13,8.38-11.81Z"/><path class="cls-3" d="M810.31,249.33,745,341.43a10,10,0,0,1-16.1.29l-.29-.38a270.43,270.43,0,0,0-146.07-96.55,5,5,0,0,1-2.85-7.74l69.93-98.59A392.31,392.31,0,0,1,810.31,249.33Z"/><path class="cls-3" d="M427.25,762.41a12.11,12.11,0,0,1,6,18.47h0l-63.7,89.83h0A392.75,392.75,0,0,1,211.92,755.51v0l45.93-64.74L276,665.2a12.08,12.08,0,0,1,19.63-.16A270.93,270.93,0,0,0,427.25,762.41Z"/></g><g id="Cental_G_Peaces" data-name="Cental G Peaces"><path class="cls-3" d="M906.5,506.5a391.06,391.06,0,0,1-19.69,122.94,382.19,382.19,0,0,1-15.9,40.44v0l-84,118.45h0v0A392.35,392.35,0,0,1,471.16,896l87-122.7h0c86.23-14,158.77-68.76,197.21-143.89H514.58V506.5Z"/><path class="cls-3" d="M545.84,115.82,456,242.56h0C334.84,269.34,244.26,377.33,244.26,506.5a270.46,270.46,0,0,0,1.86,31.87v0l-90,126.84A390.34,390.34,0,0,1,122.66,506.5c0-216.45,175.47-391.91,391.92-391.91Q530.38,114.59,545.84,115.82Z"/></g><g id="Side_Background_Peace" data-name="Side Background Peace"><path class="cls-4" d="M658.56-43.09,545.84,115.82q-15.47-1.25-31.26-1.23c-216.45,0-391.92,175.46-391.92,391.91a390.34,390.34,0,0,0,33.49,158.73L8.18,873.84l-9.85,13.89-.11-21-149.28-105.9L499.33-156Z"/><path class="cls-4" d="M786.86,788.39,485.91,1212.7l-159.25-113L471.15,896h0a392.35,392.35,0,0,0,315.7-107.64Z"/><path class="cls-4" d="M755.4,629.44c-38.44,75.13-111,129.91-197.21,143.89L660.25,629.44Z"/><path class="cls-4" d="M455.94,242.56,246.12,538.37a270.46,270.46,0,0,1-1.86-31.87C244.26,377.33,334.84,269.34,455.94,242.56Z"/><path class="cls-4" d="M1136.28,295.76,986.8,506.5,899.6,629.44l-28.69,40.44a382.19,382.19,0,0,0,15.9-40.44A391.06,391.06,0,0,0,906.5,506.5h-159L867.89,336.7,977.05,182.8l25-35.29v53.05Z"/></g></svg>